<mxfile host="app.diagrams.net" modified="2021-01-08T10:38:07.145Z" agent="5.0 (Windows NT 10.0; Win64; x64) AppleWebKit/537.36 (KHTML, like Gecko) Chrome/87.0.4280.141 Safari/537.36" etag="bs3r2gkonNLyNpeazyzA" version="14.1.8" type="github">
  <diagram id="ZvTAgUVjm7zuyatcfPWv" name="Page-1">
    <mxGraphModel dx="1240" dy="643" grid="1" gridSize="10" guides="1" tooltips="1" connect="1" arrows="1" fold="1" page="1" pageScale="1" pageWidth="3300" pageHeight="4681" math="0" shadow="0">
      <root>
        <mxCell id="0" />
        <mxCell id="1" parent="0" />
        <mxCell id="5dZ1ejHV_-NpkHJkZpsN-1" value="GIOCATORI" style="rounded=0;whiteSpace=wrap;html=1;" vertex="1" parent="1">
          <mxGeometry x="1400" y="1250" width="120" height="60" as="geometry" />
        </mxCell>
        <mxCell id="5dZ1ejHV_-NpkHJkZpsN-2" value="CARTE" style="rounded=0;whiteSpace=wrap;html=1;" vertex="1" parent="1">
          <mxGeometry x="1710" y="1250" width="120" height="60" as="geometry" />
        </mxCell>
        <mxCell id="5dZ1ejHV_-NpkHJkZpsN-3" value="TERRITORI" style="rounded=0;whiteSpace=wrap;html=1;" vertex="1" parent="1">
          <mxGeometry x="1400" y="960" width="120" height="60" as="geometry" />
        </mxCell>
        <mxCell id="5dZ1ejHV_-NpkHJkZpsN-4" value="CONTINENTI" style="rounded=0;whiteSpace=wrap;html=1;" vertex="1" parent="1">
          <mxGeometry x="1710" y="960" width="120" height="60" as="geometry" />
        </mxCell>
        <mxCell id="5dZ1ejHV_-NpkHJkZpsN-5" value="MAPPAT." style="rhombus;whiteSpace=wrap;html=1;" vertex="1" parent="1">
          <mxGeometry x="1570" y="950" width="80" height="80" as="geometry" />
        </mxCell>
        <mxCell id="5dZ1ejHV_-NpkHJkZpsN-6" value="" style="endArrow=none;html=1;entryX=1;entryY=0.5;entryDx=0;entryDy=0;exitX=0;exitY=0.5;exitDx=0;exitDy=0;" edge="1" parent="1" source="5dZ1ejHV_-NpkHJkZpsN-5" target="5dZ1ejHV_-NpkHJkZpsN-3">
          <mxGeometry width="50" height="50" relative="1" as="geometry">
            <mxPoint x="1640" y="1210" as="sourcePoint" />
            <mxPoint x="1690" y="1160" as="targetPoint" />
          </mxGeometry>
        </mxCell>
        <mxCell id="5dZ1ejHV_-NpkHJkZpsN-7" value="" style="endArrow=none;html=1;entryX=1;entryY=0.5;entryDx=0;entryDy=0;exitX=0;exitY=0.5;exitDx=0;exitDy=0;" edge="1" parent="1" source="5dZ1ejHV_-NpkHJkZpsN-4" target="5dZ1ejHV_-NpkHJkZpsN-5">
          <mxGeometry width="50" height="50" relative="1" as="geometry">
            <mxPoint x="1640" y="1210" as="sourcePoint" />
            <mxPoint x="1690" y="1160" as="targetPoint" />
          </mxGeometry>
        </mxCell>
        <mxCell id="5dZ1ejHV_-NpkHJkZpsN-8" value="PESCATA" style="rhombus;whiteSpace=wrap;html=1;" vertex="1" parent="1">
          <mxGeometry x="1580" y="1240" width="80" height="80" as="geometry" />
        </mxCell>
        <mxCell id="5dZ1ejHV_-NpkHJkZpsN-9" value="" style="endArrow=none;html=1;exitX=1;exitY=0.5;exitDx=0;exitDy=0;entryX=0;entryY=0.5;entryDx=0;entryDy=0;" edge="1" parent="1" source="5dZ1ejHV_-NpkHJkZpsN-1" target="5dZ1ejHV_-NpkHJkZpsN-8">
          <mxGeometry width="50" height="50" relative="1" as="geometry">
            <mxPoint x="1640" y="1210" as="sourcePoint" />
            <mxPoint x="1690" y="1160" as="targetPoint" />
          </mxGeometry>
        </mxCell>
        <mxCell id="5dZ1ejHV_-NpkHJkZpsN-10" value="" style="endArrow=none;html=1;exitX=1;exitY=0.5;exitDx=0;exitDy=0;entryX=0;entryY=0.5;entryDx=0;entryDy=0;" edge="1" parent="1" source="5dZ1ejHV_-NpkHJkZpsN-8" target="5dZ1ejHV_-NpkHJkZpsN-2">
          <mxGeometry width="50" height="50" relative="1" as="geometry">
            <mxPoint x="1640" y="1210" as="sourcePoint" />
            <mxPoint x="1690" y="1160" as="targetPoint" />
          </mxGeometry>
        </mxCell>
        <mxCell id="5dZ1ejHV_-NpkHJkZpsN-11" value="(1,N)" style="text;html=1;strokeColor=none;fillColor=none;align=center;verticalAlign=middle;whiteSpace=wrap;rounded=0;" vertex="1" parent="1">
          <mxGeometry x="1530" y="1260" width="40" height="20" as="geometry" />
        </mxCell>
        <mxCell id="5dZ1ejHV_-NpkHJkZpsN-12" value="(1,N)" style="text;html=1;strokeColor=none;fillColor=none;align=center;verticalAlign=middle;whiteSpace=wrap;rounded=0;" vertex="1" parent="1">
          <mxGeometry x="1530" y="970" width="40" height="20" as="geometry" />
        </mxCell>
        <mxCell id="5dZ1ejHV_-NpkHJkZpsN-13" value="(1,1)" style="text;html=1;strokeColor=none;fillColor=none;align=center;verticalAlign=middle;whiteSpace=wrap;rounded=0;" vertex="1" parent="1">
          <mxGeometry x="1660" y="1260" width="40" height="20" as="geometry" />
        </mxCell>
        <mxCell id="5dZ1ejHV_-NpkHJkZpsN-14" value="(1,N)" style="text;html=1;strokeColor=none;fillColor=none;align=center;verticalAlign=middle;whiteSpace=wrap;rounded=0;" vertex="1" parent="1">
          <mxGeometry x="1660" y="970" width="40" height="20" as="geometry" />
        </mxCell>
        <mxCell id="5dZ1ejHV_-NpkHJkZpsN-15" value="GESTIONE" style="rhombus;whiteSpace=wrap;html=1;" vertex="1" parent="1">
          <mxGeometry x="1420" y="1090" width="80" height="80" as="geometry" />
        </mxCell>
        <mxCell id="5dZ1ejHV_-NpkHJkZpsN-16" value="" style="endArrow=none;html=1;exitX=0.5;exitY=1;exitDx=0;exitDy=0;entryX=0.5;entryY=0;entryDx=0;entryDy=0;" edge="1" parent="1" source="5dZ1ejHV_-NpkHJkZpsN-15" target="5dZ1ejHV_-NpkHJkZpsN-1">
          <mxGeometry width="50" height="50" relative="1" as="geometry">
            <mxPoint x="1640" y="1210" as="sourcePoint" />
            <mxPoint x="1690" y="1160" as="targetPoint" />
          </mxGeometry>
        </mxCell>
        <mxCell id="5dZ1ejHV_-NpkHJkZpsN-17" value="" style="endArrow=none;html=1;entryX=0.5;entryY=1;entryDx=0;entryDy=0;" edge="1" parent="1" source="5dZ1ejHV_-NpkHJkZpsN-15" target="5dZ1ejHV_-NpkHJkZpsN-3">
          <mxGeometry width="50" height="50" relative="1" as="geometry">
            <mxPoint x="1640" y="1210" as="sourcePoint" />
            <mxPoint x="1690" y="1160" as="targetPoint" />
          </mxGeometry>
        </mxCell>
        <mxCell id="5dZ1ejHV_-NpkHJkZpsN-18" value="TIPOCARTE" style="ellipse;whiteSpace=wrap;html=1;" vertex="1" parent="1">
          <mxGeometry x="1870" y="1310" width="90" height="60" as="geometry" />
        </mxCell>
        <mxCell id="5dZ1ejHV_-NpkHJkZpsN-19" value="CONFINI" style="ellipse;whiteSpace=wrap;html=1;" vertex="1" parent="1">
          <mxGeometry x="1250" y="980" width="90" height="60" as="geometry" />
        </mxCell>
        <mxCell id="5dZ1ejHV_-NpkHJkZpsN-20" value="NUMARM" style="ellipse;whiteSpace=wrap;html=1;" vertex="1" parent="1">
          <mxGeometry x="1880" y="1000" width="90" height="60" as="geometry" />
        </mxCell>
        <mxCell id="5dZ1ejHV_-NpkHJkZpsN-21" value="&lt;u&gt;ID.GIOCAT&lt;/u&gt;" style="ellipse;whiteSpace=wrap;html=1;" vertex="1" parent="1">
          <mxGeometry x="1200" y="1390" width="90" height="60" as="geometry" />
        </mxCell>
        <mxCell id="5dZ1ejHV_-NpkHJkZpsN-22" value="COLOREARM" style="ellipse;whiteSpace=wrap;html=1;" vertex="1" parent="1">
          <mxGeometry x="1600" y="1390" width="90" height="60" as="geometry" />
        </mxCell>
        <mxCell id="5dZ1ejHV_-NpkHJkZpsN-23" value="&lt;u&gt;ID.CARTE&lt;/u&gt;" style="ellipse;whiteSpace=wrap;html=1;" vertex="1" parent="1">
          <mxGeometry x="1870" y="1160" width="90" height="60" as="geometry" />
        </mxCell>
        <mxCell id="5dZ1ejHV_-NpkHJkZpsN-24" value="&lt;u&gt;ID.TERR&lt;/u&gt;" style="ellipse;whiteSpace=wrap;html=1;" vertex="1" parent="1">
          <mxGeometry x="1250" y="890" width="90" height="60" as="geometry" />
        </mxCell>
        <mxCell id="5dZ1ejHV_-NpkHJkZpsN-25" value="TERR.OCC" style="ellipse;whiteSpace=wrap;html=1;" vertex="1" parent="1">
          <mxGeometry x="1500" y="1390" width="90" height="60" as="geometry" />
        </mxCell>
        <mxCell id="5dZ1ejHV_-NpkHJkZpsN-26" value="CART.POSS" style="ellipse;whiteSpace=wrap;html=1;" vertex="1" parent="1">
          <mxGeometry x="1400" y="1390" width="90" height="60" as="geometry" />
        </mxCell>
        <mxCell id="5dZ1ejHV_-NpkHJkZpsN-27" value="ORDGIOC" style="ellipse;whiteSpace=wrap;html=1;" vertex="1" parent="1">
          <mxGeometry x="1300" y="1390" width="90" height="60" as="geometry" />
        </mxCell>
        <mxCell id="5dZ1ejHV_-NpkHJkZpsN-28" value="" style="endArrow=none;html=1;exitX=1;exitY=0;exitDx=0;exitDy=0;entryX=0;entryY=1;entryDx=0;entryDy=0;" edge="1" parent="1" source="5dZ1ejHV_-NpkHJkZpsN-21" target="5dZ1ejHV_-NpkHJkZpsN-1">
          <mxGeometry width="50" height="50" relative="1" as="geometry">
            <mxPoint x="1640" y="1210" as="sourcePoint" />
            <mxPoint x="1690" y="1160" as="targetPoint" />
          </mxGeometry>
        </mxCell>
        <mxCell id="5dZ1ejHV_-NpkHJkZpsN-29" value="" style="endArrow=none;html=1;exitX=1;exitY=0;exitDx=0;exitDy=0;entryX=0.25;entryY=1;entryDx=0;entryDy=0;" edge="1" parent="1" source="5dZ1ejHV_-NpkHJkZpsN-27" target="5dZ1ejHV_-NpkHJkZpsN-1">
          <mxGeometry width="50" height="50" relative="1" as="geometry">
            <mxPoint x="1640" y="1210" as="sourcePoint" />
            <mxPoint x="1690" y="1160" as="targetPoint" />
          </mxGeometry>
        </mxCell>
        <mxCell id="5dZ1ejHV_-NpkHJkZpsN-30" value="" style="endArrow=none;html=1;exitX=0.5;exitY=0;exitDx=0;exitDy=0;entryX=0.5;entryY=1;entryDx=0;entryDy=0;" edge="1" parent="1" source="5dZ1ejHV_-NpkHJkZpsN-26" target="5dZ1ejHV_-NpkHJkZpsN-1">
          <mxGeometry width="50" height="50" relative="1" as="geometry">
            <mxPoint x="1640" y="1210" as="sourcePoint" />
            <mxPoint x="1690" y="1160" as="targetPoint" />
          </mxGeometry>
        </mxCell>
        <mxCell id="5dZ1ejHV_-NpkHJkZpsN-31" value="" style="endArrow=none;html=1;exitX=0.5;exitY=0;exitDx=0;exitDy=0;entryX=0.75;entryY=1;entryDx=0;entryDy=0;" edge="1" parent="1" source="5dZ1ejHV_-NpkHJkZpsN-25" target="5dZ1ejHV_-NpkHJkZpsN-1">
          <mxGeometry width="50" height="50" relative="1" as="geometry">
            <mxPoint x="1640" y="1210" as="sourcePoint" />
            <mxPoint x="1690" y="1160" as="targetPoint" />
          </mxGeometry>
        </mxCell>
        <mxCell id="5dZ1ejHV_-NpkHJkZpsN-32" value="" style="endArrow=none;html=1;exitX=0;exitY=0;exitDx=0;exitDy=0;entryX=1;entryY=1;entryDx=0;entryDy=0;" edge="1" parent="1" source="5dZ1ejHV_-NpkHJkZpsN-22" target="5dZ1ejHV_-NpkHJkZpsN-1">
          <mxGeometry width="50" height="50" relative="1" as="geometry">
            <mxPoint x="1640" y="1210" as="sourcePoint" />
            <mxPoint x="1690" y="1160" as="targetPoint" />
          </mxGeometry>
        </mxCell>
        <mxCell id="5dZ1ejHV_-NpkHJkZpsN-33" value="" style="endArrow=none;html=1;entryX=0;entryY=1;entryDx=0;entryDy=0;exitX=1;exitY=0;exitDx=0;exitDy=0;" edge="1" parent="1" source="5dZ1ejHV_-NpkHJkZpsN-2" target="5dZ1ejHV_-NpkHJkZpsN-23">
          <mxGeometry width="50" height="50" relative="1" as="geometry">
            <mxPoint x="1640" y="1210" as="sourcePoint" />
            <mxPoint x="1690" y="1160" as="targetPoint" />
          </mxGeometry>
        </mxCell>
        <mxCell id="5dZ1ejHV_-NpkHJkZpsN-34" value="" style="endArrow=none;html=1;entryX=0;entryY=0;entryDx=0;entryDy=0;exitX=1;exitY=1;exitDx=0;exitDy=0;" edge="1" parent="1" source="5dZ1ejHV_-NpkHJkZpsN-2" target="5dZ1ejHV_-NpkHJkZpsN-18">
          <mxGeometry width="50" height="50" relative="1" as="geometry">
            <mxPoint x="1640" y="1210" as="sourcePoint" />
            <mxPoint x="1690" y="1160" as="targetPoint" />
          </mxGeometry>
        </mxCell>
        <mxCell id="5dZ1ejHV_-NpkHJkZpsN-35" value="&lt;u&gt;ID.CONT&lt;/u&gt;" style="ellipse;whiteSpace=wrap;html=1;" vertex="1" parent="1">
          <mxGeometry x="1880" y="900" width="90" height="60" as="geometry" />
        </mxCell>
        <mxCell id="5dZ1ejHV_-NpkHJkZpsN-36" value="" style="endArrow=none;html=1;entryX=1;entryY=0.5;entryDx=0;entryDy=0;" edge="1" parent="1" source="5dZ1ejHV_-NpkHJkZpsN-3" target="5dZ1ejHV_-NpkHJkZpsN-24">
          <mxGeometry width="50" height="50" relative="1" as="geometry">
            <mxPoint x="1440" y="1010" as="sourcePoint" />
            <mxPoint x="1690" y="1160" as="targetPoint" />
          </mxGeometry>
        </mxCell>
        <mxCell id="5dZ1ejHV_-NpkHJkZpsN-37" value="" style="endArrow=none;html=1;entryX=0;entryY=1;entryDx=0;entryDy=0;exitX=1;exitY=0.5;exitDx=0;exitDy=0;" edge="1" parent="1" source="5dZ1ejHV_-NpkHJkZpsN-19" target="5dZ1ejHV_-NpkHJkZpsN-3">
          <mxGeometry width="50" height="50" relative="1" as="geometry">
            <mxPoint x="1640" y="1210" as="sourcePoint" />
            <mxPoint x="1690" y="1160" as="targetPoint" />
          </mxGeometry>
        </mxCell>
        <mxCell id="5dZ1ejHV_-NpkHJkZpsN-38" value="" style="endArrow=none;html=1;entryX=0;entryY=0.5;entryDx=0;entryDy=0;exitX=1;exitY=0;exitDx=0;exitDy=0;" edge="1" parent="1" source="5dZ1ejHV_-NpkHJkZpsN-4" target="5dZ1ejHV_-NpkHJkZpsN-35">
          <mxGeometry width="50" height="50" relative="1" as="geometry">
            <mxPoint x="1640" y="1210" as="sourcePoint" />
            <mxPoint x="1690" y="1160" as="targetPoint" />
          </mxGeometry>
        </mxCell>
        <mxCell id="5dZ1ejHV_-NpkHJkZpsN-39" value="" style="endArrow=none;html=1;entryX=0;entryY=0.5;entryDx=0;entryDy=0;exitX=1;exitY=1;exitDx=0;exitDy=0;" edge="1" parent="1" source="5dZ1ejHV_-NpkHJkZpsN-4" target="5dZ1ejHV_-NpkHJkZpsN-20">
          <mxGeometry width="50" height="50" relative="1" as="geometry">
            <mxPoint x="1640" y="1210" as="sourcePoint" />
            <mxPoint x="1690" y="1160" as="targetPoint" />
          </mxGeometry>
        </mxCell>
        <mxCell id="5dZ1ejHV_-NpkHJkZpsN-40" value="(1,N)" style="text;html=1;strokeColor=none;fillColor=none;align=center;verticalAlign=middle;whiteSpace=wrap;rounded=0;" vertex="1" parent="1">
          <mxGeometry x="1460" y="1200" width="40" height="20" as="geometry" />
        </mxCell>
        <mxCell id="5dZ1ejHV_-NpkHJkZpsN-41" value="(1,1)" style="text;html=1;strokeColor=none;fillColor=none;align=center;verticalAlign=middle;whiteSpace=wrap;rounded=0;" vertex="1" parent="1">
          <mxGeometry x="1460" y="1050" width="40" height="20" as="geometry" />
        </mxCell>
      </root>
    </mxGraphModel>
  </diagram>
</mxfile>
